<?xml version="1.0" encoding="UTF-8" standalone="no"?><!DOCTYPE svg PUBLIC "-//W3C//DTD SVG 1.1//EN" "http://www.w3.org/Graphics/SVG/1.1/DTD/svg11.dtd"><svg width="100%" height="100%" viewBox="0 0 300 300" version="1.1" xmlns="http://www.w3.org/2000/svg" xmlns:xlink="http://www.w3.org/1999/xlink" xml:space="preserve" xmlns:serif="http://www.serif.com/" style="fill-rule:evenodd;clip-rule:evenodd;stroke-linejoin:round;stroke-miterlimit:2;"><rect x="0" y="0" width="300" height="300" style="fill:#e64442;"/><g><g><rect x="47.651" y="131.68" width="9.99" height="36.699" style="fill:#fff;"/><path d="M57.029,115.166c-0.611,-0.612 -1.223,-1.02 -2.039,-1.428c-0.815,-0.407 -1.631,-0.407 -2.446,-0.407c-0.816,-0 -1.631,0.204 -2.447,0.407c-0.815,0.408 -1.427,0.816 -2.039,1.428c-0.611,0.611 -1.019,1.223 -1.427,2.038c-0.408,0.816 -0.408,1.632 -0.408,2.447c0,0.816 0.204,1.631 0.408,2.447c0.408,0.815 0.816,1.427 1.427,2.039c0.612,0.611 1.224,1.019 2.039,1.427c0.816,0.407 1.631,0.407 2.447,0.407c0.815,0 1.631,-0.203 2.446,-0.407c0.816,-0.408 1.428,-0.816 2.039,-1.427c0.612,-0.612 1.02,-1.224 1.427,-2.039c0.408,-0.816 0.408,-1.631 0.408,-2.447c0,-0.815 -0.204,-1.631 -0.408,-2.447c-0.407,-0.815 -1.019,-1.427 -1.427,-2.038Z" style="fill:#fff;fill-rule:nonzero;"/><path d="M115.951,115.166c-0.611,-0.612 -1.223,-1.02 -2.038,-1.428c-0.816,-0.407 -1.631,-0.407 -2.447,-0.407c-0.815,-0 -1.631,0.204 -2.447,0.407c-0.815,0.408 -1.427,0.816 -2.038,1.428c-0.612,0.611 -1.02,1.223 -1.428,2.038c-0.407,0.816 -0.407,1.632 -0.407,2.447c-0,0.816 0.204,1.631 0.407,2.447c0.408,0.815 0.816,1.427 1.428,2.039c0.611,0.611 1.223,1.019 2.038,1.427c0.816,0.407 1.632,0.407 2.447,0.407c0.816,0 1.631,-0.203 2.447,-0.407c0.815,-0.408 1.427,-0.816 2.038,-1.427c0.612,-0.612 1.02,-1.224 1.428,-2.039c0.407,-0.816 0.407,-1.631 0.407,-2.447c0,-0.815 -0.203,-1.631 -0.407,-2.447c-0.408,-0.815 -0.816,-1.427 -1.428,-2.038Z" style="fill:#fff;fill-rule:nonzero;"/><rect x="106.573" y="131.68" width="9.99" height="36.699" style="fill:#fff;"/><path d="M158.359,136.37c-1.631,-1.632 -3.466,-3.059 -5.709,-4.078c-2.242,-1.02 -4.485,-1.427 -7.135,-1.427c-2.447,-0 -4.69,0.407 -6.525,1.427c-1.835,1.019 -3.262,2.243 -4.485,3.67l-0,-4.078l-9.583,0l0,51.99l9.787,0l-0,-18.961c1.223,1.427 2.65,2.651 4.485,3.466c1.835,0.816 3.874,1.223 6.321,1.223c2.446,0 4.893,-0.407 7.135,-1.427c2.243,-1.019 4.078,-2.242 5.709,-4.077c1.631,-1.631 2.855,-3.67 3.67,-6.117c0.816,-2.446 1.427,-4.893 1.427,-7.747c0,-2.855 -0.407,-5.301 -1.427,-7.748c-0.815,-2.447 -2.039,-4.485 -3.67,-6.116Zm-5.709,17.737c-0.407,1.224 -1.019,2.243 -1.834,3.262c-0.816,0.816 -1.835,1.632 -3.059,2.243c-1.223,0.612 -2.446,0.816 -3.874,0.816c-1.427,-0 -2.65,-0.204 -3.873,-0.816c-1.224,-0.408 -2.243,-1.223 -3.059,-2.039c-0.815,-0.815 -1.427,-2.038 -1.834,-3.262c-0.408,-1.223 -0.612,-2.65 -0.612,-4.077c-0,-1.428 0.204,-2.855 0.612,-4.078c0.407,-1.223 1.019,-2.243 1.834,-3.262c0.816,-0.816 1.835,-1.631 3.059,-2.039c1.223,-0.408 2.446,-0.816 3.873,-0.816c1.428,0 2.855,0.204 3.874,0.816c1.224,0.612 2.243,1.223 3.059,2.243c0.815,0.815 1.427,2.038 1.834,3.262c0.408,1.223 0.612,2.65 0.612,3.874c0,1.223 -0.204,2.65 -0.612,3.873Z" style="fill:#2ad2c9;fill-rule:nonzero;"/><path d="M197.709,135.758c-1.224,-1.427 -2.651,-2.651 -4.486,-3.67c-1.835,-1.019 -3.874,-1.427 -6.524,-1.427c-2.447,-0 -4.893,0.408 -7.136,1.427c-2.243,1.019 -4.078,2.243 -5.709,4.078c-1.631,1.631 -2.854,3.67 -3.67,6.116c-0.815,2.447 -1.427,4.893 -1.427,7.748c0,2.854 0.408,5.301 1.427,7.747c0.816,2.447 2.243,4.486 3.67,6.117c1.631,1.631 3.466,3.058 5.709,4.077c2.243,1.02 4.486,1.428 7.136,1.428c2.447,-0 4.689,-0.408 6.524,-1.428c1.835,-1.019 3.262,-2.038 4.486,-3.669l-0,4.077l9.582,0l0,-36.699l-9.582,0l-0,4.078Zm-0.408,18.349c-0.408,1.224 -1.019,2.243 -1.835,3.262c-0.816,0.816 -1.835,1.632 -3.058,2.039c-1.224,0.408 -2.447,0.816 -3.874,0.816c-1.427,-0 -2.651,-0.204 -3.874,-0.816c-1.223,-0.611 -2.243,-1.223 -3.058,-2.242c-0.816,-0.816 -1.427,-2.039 -1.835,-3.263c-0.408,-1.223 -0.612,-2.65 -0.612,-3.873c0,-1.427 0.204,-2.651 0.612,-3.874c0.408,-1.223 1.019,-2.243 1.835,-3.262c0.815,-0.816 1.835,-1.631 3.058,-2.243c1.223,-0.612 2.447,-0.815 3.874,-0.815c1.427,-0 2.65,0.203 3.874,0.815c1.223,0.408 2.242,1.223 3.058,2.039c0.816,0.815 1.427,2.039 1.835,3.262c0.408,1.223 0.612,2.651 0.612,4.078c-0,1.427 -0.204,2.854 -0.612,4.077Z" style="fill:#2ad2c9;fill-rule:nonzero;"/><path d="M242.971,131.68l-9.787,18.961l-10.194,-18.961l-11.213,0l15.903,28.952l-12.845,23.242l10.806,0l28.136,-52.194l-10.806,0Z" style="fill:#2ad2c9;fill-rule:nonzero;"/><path d="M77.214,160.224l3.873,-3.67l-4.281,-7.136l-11.418,10.806l2.039,8.155l30.958,-0.066l-1.802,-8.089l-19.369,-0Z" style="fill:#fff;fill-rule:nonzero;"/><path d="M98.621,140.243l-2.038,-8.359l-30.379,0l2.243,8.155l18.349,0.204l-3.874,3.466l4.078,7.34l11.621,-10.806Z" style="fill:#fff;fill-rule:nonzero;"/></g></g></svg>